# xmcd
#
# Track frame offsets:
#	150
#	26330
#	41947
#	59217
#	75773
#	92020
#	114080
#	136630
#	155112
#	176820
#	199280
# Disc length: 2818 seconds
# Revision: 1
# Processed by: cddbd v1.5.2PL0 Copyright (c) Steve Scherf et al.
#
# Submitted via: libkcddb 0.31
#
DISCID=8d0b000b
DTITLE=LIttle Mack Simmons - Somewhere On Down The Line
DYEAR=1997
DGENRE=Blues
TTITLE0=Trouble No More
TTITLE1=I'm Just Like Poison Ivy
TTITLE2=The Things I Used To Do
TTITLE3=So Unhappy
TTITLE4=Snap Your Fingers
TTITLE5=All Around The World
TTITLE6=It's Gonna Rain
TTITLE7=I'm Ready
TTITLE8=Hooked On Your Love
TTITLE9=Fever
TTITLE10=Next Time Your See Me
EXTD=
EXTT0=
EXTT1=
EXTT2=
EXTT3=
EXTT4=
EXTT5=
EXTT6=
EXTT7=
EXTT8=
EXTT9=
EXTT10=
PLAYORDER=
